<svg width="476" height="133" viewBox="0 0 476 133" fill="none" xmlns="http://www.w3.org/2000/svg">
<path fill-rule="evenodd" clip-rule="evenodd" d="M101.89 51.17L123.39 29.68L116.04 22.34L102.1 30.12L109.88 16.18L102.54 8.82996L81.04 30.33L86.36 35.64L97.64 24.37L90.28 39.57L92.65 41.93L107.85 34.58L96.57 45.86L101.89 51.17Z" fill="black"/>
<path fill-rule="evenodd" clip-rule="evenodd" d="M51.6 102.22V132.62H56.93L66.25 109.62L75.53 132.62H80.87V102.22H77.15V127.33L67.02 102.22H65.49L55.32 127.33V102.22H51.6Z" fill="black"/>
<path fill-rule="evenodd" clip-rule="evenodd" d="M81.54 101.65L103.03 123.15L107.78 118.4L99.15 99.29L118.23 107.95L122.98 103.2L101.49 81.71L98.12 85.08L114.66 101.62L92.25 90.95L90.81 92.39L101.45 114.83L84.91 98.29L81.54 101.65Z" fill="black"/>
<path fill-rule="evenodd" clip-rule="evenodd" d="M102.09 80.2901H132.48V71.3801L116.56 66.1601L132.48 60.9701V52.0601H102.09V58.4701H123.79L102.09 64.7401V67.5701L123.79 73.8801H102.09V80.2901Z" fill="black"/>
<path fill-rule="evenodd" clip-rule="evenodd" d="M50.44 101.56L29.03 122.97L25.89 119.83L36.53 96.03L12.74 106.68L9.58997 103.53L31 82.13L33 84.13L13.81 103.32L40.01 91.45L41.08 92.53L29.24 118.76L48.44 99.56L50.44 101.56Z" fill="black"/>
<path fill-rule="evenodd" clip-rule="evenodd" d="M51.92 30.13V-0.26001H60.84L66.06 15.66L71.24 -0.26001H80.16V30.13H73.74V8.42999L67.48 30.13H64.64L58.34 8.42999V30.13H51.92Z" fill="black"/>
<path fill-rule="evenodd" clip-rule="evenodd" d="M29.99 51.55H0.0999756V56.8801L22.6 66.2L0.0999756 75.4801V80.81H29.99V77.09H5.38998L29.99 66.96V65.4401L5.38998 55.2701H29.99V51.55Z" fill="black"/>
<path fill-rule="evenodd" clip-rule="evenodd" d="M50.54 30.7L29.05 9.20996L24.3 13.96L32.93 33.07L13.85 24.41L9.09998 29.16L30.59 50.65L33.96 47.28L17.42 30.74L39.83 41.41L41.27 39.97L30.63 17.53L47.17 34.07L50.54 30.7Z" fill="black"/>
<path fill-rule="evenodd" clip-rule="evenodd" d="M163.08 4.54001H168.3V17.69H170.47V4.54001H175.69V2.59H163.07V4.54001H163.08ZM188.42 11.18C188.66 13.08 189.5 14.68 190.94 15.96C192.38 17.24 194.19 17.89 196.39 17.89C198.85 17.89 200.84 17.14 202.32 15.61C203.8 14.08 204.56 12.27 204.56 10.14C204.56 7.97003 203.81 6.12999 202.3 4.64999C200.82 3.13999 198.85 2.39001 196.43 2.39001C194.22 2.39001 192.38 3.04999 190.92 4.35999C189.46 5.66999 188.62 7.28001 188.4 9.23001H186.05V2.59H183.88V17.69H186.05V11.18H188.42ZM196.44 15.9C194.76 15.9 193.36 15.35 192.23 14.26C191.12 13.18 190.57 11.8 190.57 10.14C190.57 8.48003 191.12 7.10999 192.23 6.01999C193.36 4.93999 194.75 4.38 196.44 4.38C198.14 4.38 199.54 4.92999 200.65 6.01999C201.78 7.09999 202.33 8.48003 202.33 10.14C202.33 11.8 201.78 13.17 200.65 14.26C199.54 15.34 198.14 15.9 196.44 15.9ZM220.37 8.79002L215.37 2.59H213.33V17.69H215.5V5.94H215.54L220.19 11.78H220.54L225.19 5.94H225.23V17.69H227.4V2.59H225.39L220.37 8.79002ZM236.81 17.69H245.58V15.74H238.98V11.05H245.16V9.10001H238.98V4.54001H245.38V2.59H236.81V17.69ZM264.66 9.17001H256.2V2.60001H254.03V17.7H256.2V11.13H264.66V17.7H266.83V2.60001H264.66V9.17001ZM289.34 14.19C287.59 15.32 285.82 15.89 284.07 15.89C282.25 15.89 280.77 15.36 279.64 14.3C278.51 13.24 277.96 11.87 277.96 10.16C277.96 8.5 278.54 7.13001 279.66 6.04001C280.81 4.93001 282.25 4.38 283.98 4.38C285.64 4.38 287.39 4.91001 289.18 5.95001V3.63C287.21 2.81 285.48 2.39001 284 2.39001C281.59 2.39001 279.62 3.13999 278.05 4.64999C276.5 6.15999 275.73 8.05999 275.73 10.36C275.73 12.02 276.42 13.79 277.66 15.32C278.92 16.83 281.2 17.89 283.88 17.89C285.83 17.89 287.64 17.45 289.35 16.56V14.19H289.34ZM300.32 17.69V10.5C301.27 10.5 302 10.7 302.51 11.1C303.02 11.5 303.66 12.34 304.39 13.62L306.74 17.69H309.2L306.54 13.09C305.92 12.01 305.41 11.23 305.01 10.81C304.61 10.37 304.04 9.97001 303.31 9.64001C304.11 9.26001 305.01 8.09001 305.39 7.01001C305.72 6.06001 306.08 5.39 306.43 5.06C306.81 4.73 307.45 4.54999 308.36 4.54999V2.60001H308.03C306.95 2.60001 306.06 2.84001 305.42 3.35001C304.78 3.84001 304.2 4.73999 303.69 6.04999C303.27 7.12999 302.8 7.84002 302.32 8.20002C301.86 8.55002 301.19 8.73001 300.33 8.73001V2.60001H298.16V17.7H300.32V17.69ZM315.46 10.14C315.46 12.26 316.21 14.08 317.7 15.61C319.18 17.14 321.13 17.89 323.52 17.89C325.98 17.89 327.97 17.14 329.45 15.61C330.93 14.08 331.69 12.27 331.69 10.14C331.69 7.97003 330.94 6.12999 329.43 4.64999C327.95 3.13999 325.98 2.39001 323.56 2.39001C321.17 2.39001 319.22 3.13999 317.72 4.64999C316.21 6.15999 315.46 8.00002 315.46 10.14ZM323.56 15.9C321.88 15.9 320.48 15.35 319.35 14.26C318.24 13.18 317.69 11.8 317.69 10.14C317.69 8.48003 318.24 7.10999 319.35 6.01999C320.48 4.93999 321.87 4.38 323.56 4.38C325.26 4.38 326.66 4.92999 327.77 6.01999C328.9 7.09999 329.45 8.48003 329.45 10.14C329.45 11.8 328.9 13.17 327.77 14.26C326.66 15.34 325.27 15.9 323.56 15.9ZM340.5 17.69H349.27V15.74H342.67V11.05H348.85V9.10001H342.67V4.54001H349.07V2.59H340.5V17.69ZM171.36 45.35L166.36 39.15H164.32V54.25H166.49V42.5H166.53L171.18 48.34H171.53L176.18 42.5H176.22V54.25H178.39V39.15H176.38L171.36 45.35ZM310.92 48.29V50.39H316.3V48.29H310.92ZM192.96 54.25C192.92 54.71 192.69 55.11 192.3 55.42C191.92 55.75 191.55 55.91 191.22 55.91C190.36 55.91 189.69 55.67 189.23 55.2V57.15C189.78 57.5 190.43 57.68 191.13 57.68C192.88 57.68 193.99 56.66 194.89 54.25L200.51 39.15H198.38L193.93 51.77L188.51 39.15H186.34L192.96 54.25ZM210.96 47.56C213.46 47.56 214.57 48.6 214.57 49.99C214.57 51.98 212.6 52.38 211.12 52.38C209.81 52.38 208.62 52 207.53 51.27V53.62C208.04 53.86 208.68 54.06 209.48 54.22C210.28 54.38 210.96 54.44 211.56 54.44C213 54.44 214.22 54.06 215.21 53.31C216.23 52.56 216.74 51.49 216.74 50.1C216.74 48.24 215.5 46.98 213.93 46.51C215.44 46.05 216.63 44.65 216.63 42.88C216.63 40.2 214.77 38.94 212.2 38.94C211.6 38.94 210.85 39.03 209.94 39.23C209.03 39.41 208.28 39.65 207.66 39.94V41.95C208.81 41.31 210.12 41 211.56 41C213.26 41 214.46 41.73 214.46 43.17C214.46 43.79 214.17 44.37 213.62 44.87C213.07 45.38 212.38 45.62 211.56 45.62H208.73V47.55H210.96V47.56ZM225.52 54.25H234.29V52.3H227.69V47.61H233.87V45.66H227.69V41.1H234.09V39.15H225.52V54.25ZM255.54 54.25V39.15H254.48L244.92 50.64V39.15H242.75V54.45H243.79L253.37 43.16V54.25H255.54ZM245.95 35.14C246.28 36.98 247.41 38 249.12 38C250.78 38 251.89 36.98 252.22 35.14H250.71C250.51 36.05 249.98 36.51 249.14 36.51C248.23 36.51 247.66 36.05 247.44 35.14H245.95ZM275.66 45.73H267.2V39.16H265.03V54.26H267.2V47.69H275.66V54.26H277.83V39.16H275.66V45.73ZM286.66 46.7C286.66 48.83 287.41 50.64 288.9 52.17C290.38 53.7 292.33 54.45 294.72 54.45C297.18 54.45 299.17 53.7 300.65 52.17C302.13 50.64 302.89 48.83 302.89 46.7C302.89 44.53 302.14 42.69 300.63 41.21C299.15 39.7 297.18 38.95 294.76 38.95C292.37 38.95 290.42 39.7 288.92 41.21C287.42 42.72 286.66 44.55 286.66 46.7ZM294.76 52.46C293.08 52.46 291.68 51.91 290.55 50.82C289.44 49.74 288.89 48.36 288.89 46.7C288.89 45.04 289.44 43.67 290.55 42.58C291.68 41.5 293.07 40.94 294.76 40.94C296.46 40.94 297.86 41.49 298.97 42.58C300.1 43.66 300.65 45.04 300.65 46.7C300.65 48.36 300.1 49.73 298.97 50.82C297.86 51.9 296.47 52.46 294.76 52.46ZM164.36 90.81H166.53V77.66H174.99V90.81H177.16V75.71H164.37V90.81H164.36ZM188.71 90.81V84.28H190.97C194.31 84.28 196.06 82.55 196.06 80.05C196.06 77.5 194.42 75.71 191.26 75.71H186.55V90.81H188.71ZM191.26 77.66C193.05 77.66 193.83 78.66 193.83 79.96C193.83 81.44 192.79 82.33 191.17 82.33H188.71V77.66H191.26ZM203.87 83.26C203.87 85.39 204.62 87.2 206.11 88.73C207.59 90.26 209.54 91.01 211.93 91.01C214.39 91.01 216.38 90.26 217.86 88.73C219.34 87.2 220.1 85.39 220.1 83.26C220.1 81.09 219.35 79.25 217.84 77.77C216.36 76.26 214.39 75.51 211.97 75.51C209.58 75.51 207.63 76.26 206.13 77.77C204.63 79.27 203.87 81.11 203.87 83.26ZM211.98 89.01C210.3 89.01 208.9 88.46 207.77 87.37C206.66 86.29 206.11 84.91 206.11 83.25C206.11 81.59 206.66 80.22 207.77 79.13C208.9 78.05 210.29 77.49 211.98 77.49C213.68 77.49 215.08 78.04 216.19 79.13C217.32 80.21 217.87 81.59 217.87 83.25C217.87 84.91 217.32 86.28 216.19 87.37C215.07 88.46 213.68 89.01 211.98 89.01ZM241.93 87.31C240.18 88.44 238.41 89.01 236.66 89.01C234.85 89.01 233.36 88.48 232.23 87.42C231.1 86.36 230.55 84.99 230.55 83.28C230.55 81.62 231.13 80.25 232.25 79.16C233.4 78.05 234.84 77.5 236.57 77.5C238.23 77.5 239.98 78.03 241.77 79.07V76.75C239.8 75.93 238.07 75.51 236.59 75.51C234.18 75.51 232.21 76.26 230.64 77.77C229.09 79.28 228.32 81.18 228.32 83.48C228.32 85.14 229.01 86.91 230.25 88.44C231.51 89.95 233.79 91.01 236.47 91.01C238.42 91.01 240.23 90.57 241.94 89.68V87.31H241.93ZM255.92 90.81C257.67 90.81 258.95 90.41 259.82 89.61C260.68 88.79 261.1 87.86 261.1 86.78C261.1 84.74 259.75 83.26 257.47 82.84V82.8C259 82.18 259.77 81.1 259.77 79.57C259.77 78.53 259.37 77.62 258.57 76.87C257.8 76.1 256.64 75.72 255.12 75.72H250.74V90.82H255.92V90.81ZM254.9 77.66C256.65 77.66 257.53 78.37 257.53 79.76C257.53 81.38 256.47 82.17 254.34 82.17H252.9V77.65H254.9V77.66ZM255.52 84.12C257.73 84.12 258.86 85.05 258.86 86.47C258.86 87.8 257.95 88.86 255.63 88.86H252.91V84.12H255.52ZM269.35 90.81H278.12V88.86H271.52V84.17H277.7V82.22H271.52V77.66H277.92V75.71H269.35V90.81ZM285.29 77.66H290.51V90.81H292.68V77.66H297.9V75.71H285.28V77.66H285.29ZM318.45 90.81V75.71H317.39L307.83 87.2V75.71H305.66V91H306.7L316.28 79.71V90.8H318.45V90.81ZM326.22 77.66H331.44V90.81H333.61V77.66H338.83V75.71H326.21V77.66H326.22ZM346.59 90.81H355.36V88.86H348.76V84.17H354.94V82.22H348.76V77.66H355.16V75.71H346.59V90.81ZM362.15 90.81H364.36L369.36 78.57L374.69 90.81H376.9L370.15 75.62H368.62L362.15 90.81ZM386.9 75.71H384.73V90.81H389.4C390.99 90.81 392.23 90.39 393.14 89.57C394.05 88.75 394.51 87.71 394.51 86.47C394.51 85.21 394.07 84.17 393.16 83.33C392.27 82.49 390.99 82.07 389.33 82.07H386.9V75.71ZM389.68 84.01C391.27 84.01 392.27 85.03 392.27 86.56C392.27 87.82 391.47 88.86 389.68 88.86H386.89V84.01H389.68ZM415.94 87.31C414.19 88.44 412.42 89.01 410.67 89.01C408.85 89.01 407.37 88.48 406.24 87.42C405.11 86.36 404.56 84.99 404.56 83.28C404.56 81.62 405.14 80.25 406.26 79.16C407.41 78.05 408.85 77.5 410.58 77.5C412.24 77.5 413.99 78.03 415.78 79.07V76.75C413.81 75.93 412.08 75.51 410.6 75.51C408.19 75.51 406.22 76.26 404.65 77.77C403.1 79.28 402.33 81.18 402.33 83.48C402.33 85.14 403.02 86.91 404.26 88.44C405.52 89.95 407.8 91.01 410.48 91.01C412.43 91.01 414.24 90.57 415.95 89.68V87.31H415.94ZM426.92 90.81V83.62C427.87 83.62 428.6 83.82 429.11 84.22C429.62 84.62 430.26 85.46 430.99 86.74L433.34 90.81H435.8L433.14 86.21C432.52 85.13 432.01 84.35 431.61 83.93C431.21 83.49 430.64 83.09 429.91 82.76C430.71 82.38 431.61 81.21 431.99 80.13C432.32 79.18 432.68 78.51 433.03 78.18C433.41 77.85 434.05 77.67 434.96 77.67V75.72H434.63C433.55 75.72 432.66 75.96 432.02 76.47C431.38 76.96 430.8 77.86 430.29 79.17C429.87 80.25 429.4 80.96 428.92 81.32C428.46 81.67 427.79 81.85 426.93 81.85V75.72H424.76V90.82H426.92V90.81ZM442.06 83.26C442.06 85.39 442.81 87.2 444.3 88.73C445.78 90.26 447.73 91.01 450.12 91.01C452.58 91.01 454.57 90.26 456.05 88.73C457.53 87.2 458.29 85.39 458.29 83.26C458.29 81.09 457.54 79.25 456.03 77.77C454.55 76.26 452.58 75.51 450.16 75.51C447.77 75.51 445.82 76.26 444.32 77.77C442.81 79.27 442.06 81.11 442.06 83.26ZM450.16 89.01C448.48 89.01 447.08 88.46 445.95 87.37C444.84 86.29 444.29 84.91 444.29 83.25C444.29 81.59 444.84 80.22 445.95 79.13C447.08 78.05 448.47 77.49 450.16 77.49C451.86 77.49 453.26 78.04 454.37 79.13C455.5 80.21 456.05 81.59 456.05 83.25C456.05 84.91 455.5 86.28 454.37 87.37C453.26 88.46 451.87 89.01 450.16 89.01ZM467.1 90.81H475.87V88.86H469.27V84.17H475.45V82.22H469.27V77.66H475.67V75.71H467.1V90.81ZM163.7 119.81C163.7 121.93 164.45 123.75 165.94 125.28C167.42 126.81 169.37 127.56 171.76 127.56C174.22 127.56 176.21 126.81 177.69 125.28C179.17 123.75 179.93 121.94 179.93 119.81C179.93 117.64 179.18 115.8 177.67 114.32C176.19 112.81 174.22 112.06 171.8 112.06C169.41 112.06 167.46 112.81 165.96 114.32C164.45 115.83 163.7 117.67 163.7 119.81ZM171.8 125.57C170.12 125.57 168.72 125.02 167.59 123.93C166.48 122.85 165.93 121.47 165.93 119.81C165.93 118.15 166.48 116.78 167.59 115.69C168.72 114.61 170.11 114.05 171.8 114.05C173.5 114.05 174.9 114.6 176.01 115.69C177.14 116.77 177.69 118.15 177.69 119.81C177.69 121.47 177.14 122.84 176.01 123.93C174.9 125.02 173.5 125.57 171.8 125.57ZM193.96 127.36C195.58 127.36 196.88 126.96 197.88 126.14C198.88 125.32 199.39 124.24 199.39 122.84C199.39 121.45 198.88 120.34 197.88 119.52C196.88 118.7 195.58 118.3 193.96 118.3H190.91V114.2H198.37V112.25H188.74V127.35H193.96V127.36ZM193.78 120.26C196.02 120.26 197.14 121.12 197.14 122.85C197.14 124.29 195.97 125.42 194.22 125.42H190.9V120.26H193.78ZM211.13 112.27H205.55V114.11H208.96V127.37H213.63C215.22 127.37 216.46 126.95 217.37 126.13C218.28 125.31 218.74 124.27 218.74 123.03C218.74 121.77 218.3 120.73 217.39 119.89C216.5 119.05 215.22 118.63 213.56 118.63H211.13V112.27ZM213.92 120.57C215.51 120.57 216.51 121.59 216.51 123.12C216.51 124.38 215.71 125.42 213.92 125.42H211.13V120.57H213.92ZM227.16 127.36H235.93V125.41H229.33V120.72H235.51V118.77H229.33V114.21H235.73V112.26H227.16V127.36ZM251.22 112.18H249.69L244.71 125.42H243.38V130.13H245.59V127.36H255.55V130.13H257.76V125.42H256.43L251.22 112.18ZM246.88 125.41L250.42 115.34L254.25 125.41H246.88ZM279.93 127.36V112.26H278.87L269.31 123.75V112.26H267.14V127.56H268.18L277.76 116.27V127.36H279.93ZM300.06 118.84H291.6V112.27H289.43V127.37H291.6V120.8H300.06V127.37H302.23V112.27H300.06V118.84ZM311.72 127.36H320.49V125.41H313.89V120.72H320.07V118.77H313.89V114.21H320.29V112.26H311.72V127.36ZM339.57 118.84H331.11V112.27H328.94V127.37H331.11V120.8H339.57V127.37H341.74V112.27H339.57V118.84ZM364.03 127.36V112.26H362.97L353.41 123.75V112.26H351.24V127.56H352.28L361.87 116.27V127.36H364.03ZM373.52 127.36H382.29V125.41H375.69V120.72H381.87V118.77H375.69V114.21H382.09V112.26H373.52V127.36Z" fill="black"/>
</svg>
