<svg width="1235" height="26" viewBox="0 0 1235 26" fill="none" xmlns="http://www.w3.org/2000/svg">
<rect width="50" height="26" rx="10" fill="#669BBD"/>
<rect x="65" width="50" height="26" rx="10" fill="#273687"/>
<rect x="130" width="50" height="26" rx="10" fill="#669BBD"/>
<rect x="195" width="50" height="26" rx="10" fill="#273687"/>
<rect x="260" width="50" height="26" rx="10" fill="#669BBD"/>
<rect x="325" width="50" height="26" rx="10" fill="#273687"/>
<rect x="390" width="50" height="26" rx="10" fill="#669BBD"/>
<rect x="455" width="50" height="26" rx="10" fill="#273687"/>
<rect x="520" width="50" height="26" rx="10" fill="#669BBD"/>
<rect x="585" width="50" height="26" rx="10" fill="#273687"/>
<rect x="650" width="50" height="26" rx="10" fill="#669BBD"/>
<rect x="715" width="50" height="26" rx="10" fill="#273687"/>
<rect x="780" width="50" height="26" rx="10" fill="#669BBD"/>
<rect x="845" width="50" height="26" rx="10" fill="#273687"/>
<rect x="910" width="50" height="26" rx="10" fill="#669BBD"/>
<rect x="975" width="50" height="26" rx="10" fill="#273687"/>
<rect x="780" width="50" height="26" rx="10" fill="#669BBD"/>
<rect x="845" width="50" height="26" rx="10" fill="#273687"/>
<rect x="910" width="50" height="26" rx="10" fill="#669BBD"/>
<rect x="975" width="50" height="26" rx="10" fill="#273687"/>
<rect x="780" width="50" height="26" rx="10" fill="#669BBD"/>
<rect x="845" width="50" height="26" rx="10" fill="#273687"/>
<rect x="910" width="50" height="26" rx="10" fill="#669BBD"/>
<rect x="975" width="50" height="26" rx="10" fill="#273687"/>
<rect x="1040" width="50" height="26" rx="10" fill="#273687"/>
<rect x="1105" width="50" height="26" rx="10" fill="#669BBD"/>
<rect x="1170" width="50" height="26" rx="10" fill="#273687"/>
<rect width="15" height="26" rx="7.5" transform="matrix(-1 0 0 1 1235 0)" fill="#EDF2F2"/>
</svg>
